<svg width="50" height="50" viewBox="0 0 50 50" fill="none" xmlns="http://www.w3.org/2000/svg">
<g clip-path="url(#clip0_2563_20609)">
<rect width="50" height="50" rx="25" fill="#F3EAF2"/>
<g clip-path="url(#clip1_2563_20609)">
<path d="M32.7485 120.056C32.8223 120.011 32.8693 119.974 32.9222 119.951C33.4691 119.719 33.6723 119.328 33.7085 118.721C33.8814 115.83 34.1172 112.944 34.3155 110.055C34.479 107.679 34.6244 105.303 34.7719 102.927C34.9636 99.8337 35.1525 96.7399 35.3384 93.6469C35.5431 90.243 35.742 86.839 35.9461 83.4351C35.9663 83.0918 35.9996 82.7485 36.0285 82.383C36.804 82.6329 37.2366 82.2315 37.636 81.6641C37.5607 81.8717 37.513 82.0943 37.4037 82.2824C37.1759 82.676 36.8995 83.0415 36.6731 83.4358C36.5262 83.6907 36.3931 83.9672 36.3258 84.2509C36.2484 84.574 36.3765 84.8684 36.6608 85.0659C36.9444 85.2627 37.2511 85.2555 37.5542 85.1126C40.479 83.7374 41.92 81.4322 41.9222 78.2293C41.9222 77.3345 41.9222 76.4404 41.9222 75.4997C42.0741 75.4788 42.3092 75.4458 42.5444 75.4142C42.8554 75.3725 43.0037 75.2138 42.9994 74.8849C42.9314 69.5966 42.9032 64.3075 42.7947 59.0206C42.7317 55.9764 42.2499 52.9667 41.7385 49.97C41.3254 47.5534 40.8581 45.1448 40.3553 42.7448C40.1122 41.585 39.6427 40.4784 38.6799 39.7179C38.0751 39.2403 37.3705 38.8683 36.6702 38.5315C35.2494 37.8486 33.7989 37.2259 32.3666 36.5653C32.2009 36.4891 32.0729 36.3333 31.9282 36.2134C31.3212 35.71 30.7338 35.1807 30.1023 34.7089C29.5199 34.2737 29.3933 33.3947 29.9012 32.887C30.7613 32.0266 31.3444 31.009 31.6518 29.8378C31.7025 29.6453 31.7596 29.5498 31.9882 29.5067C32.2624 29.455 32.5416 29.3272 32.7731 29.167C33.919 28.3735 34.6222 26.2952 34.1824 24.9803C34.0876 24.6966 33.8575 24.4597 33.7121 24.1904C33.6492 24.074 33.5899 23.916 33.6174 23.7983C33.8315 22.892 34.131 22.0008 34.2728 21.0851C34.3516 20.5767 34.2366 20.0144 34.0984 19.5052C34.008 19.1727 33.9581 18.8647 33.9943 18.53C34.2135 16.484 34.4204 14.4366 34.6533 12.3928C34.7141 11.8614 34.5571 11.4298 34.2243 11.0377C33.5949 10.2966 32.776 9.81832 31.905 9.42263C30.1876 8.64202 28.3624 8.26787 26.4939 8.0948C23.7738 7.84201 21.1 8.08546 18.4972 8.93645C17.3223 9.32065 16.2177 9.84274 15.291 10.688C14.7086 11.2187 14.4591 11.8133 14.5654 12.6334C14.8302 14.6743 15.011 16.7253 15.2194 18.7735C15.2331 18.9099 15.2288 19.0701 15.1695 19.1871C14.8215 19.8736 14.7788 20.5947 14.943 21.3228C15.1246 22.1279 15.3467 22.9243 15.5681 23.72C15.6252 23.9254 15.6165 24.0597 15.4465 24.2191C14.9517 24.6823 14.8454 25.297 14.8736 25.9347C14.9191 26.9422 15.2512 27.8586 15.869 28.6593C16.2148 29.1081 16.6677 29.4126 17.2406 29.5318C17.3361 29.552 17.4598 29.6669 17.4844 29.7602C17.8164 31.0313 18.4516 32.1236 19.4043 33.0349C19.612 33.2338 19.5592 33.8845 19.4326 34.1301C19.1729 34.6371 18.6093 34.7965 18.2794 35.1943C17.2572 36.4252 15.848 37.0155 14.4265 37.6087C13.5266 37.9843 12.6418 38.3958 11.7506 38.7936C10.1909 39.4902 9.13613 40.6522 8.73898 42.296C8.27816 44.2005 7.87232 46.1215 7.54606 48.0525C7.11924 50.5768 6.74523 53.1118 6.43633 55.6526C6.0153 59.1168 6.07462 62.6055 6.05003 66.0885C6.03773 67.812 6.0616 69.5355 6.05437 71.2591C6.0493 72.4418 6.0153 73.6246 6.00011 74.8074C5.99432 75.2756 6.07824 75.3596 6.55497 75.4235C6.75753 75.4501 6.95936 75.481 7.10477 75.5018C7.10477 76.1876 7.11852 76.8533 7.10188 77.5183C7.06932 78.844 7.14311 80.1496 7.70304 81.3848C8.33892 82.788 9.22729 83.9571 10.6734 84.6322C10.9671 84.7693 11.2348 84.9597 11.5249 85.104C11.8518 85.267 12.1832 85.2591 12.4718 85.015C12.7445 84.7844 12.8538 84.472 12.7272 84.1417C12.6057 83.8236 12.419 83.5284 12.2512 83.2282C11.9835 82.75 11.705 82.2767 11.4373 81.7984C11.3997 81.7309 11.3983 81.644 11.3635 81.4954C12.0284 82.4727 12.2201 82.5754 13.0166 82.3873C13.0563 82.9381 13.1005 83.481 13.1352 84.0254C13.3269 87.0221 13.5179 90.0189 13.7067 93.0164C13.8608 95.4645 14.0062 97.9134 14.1632 100.361C14.3607 103.454 14.5574 106.548 14.7701 109.64C14.9712 112.565 15.2049 115.488 15.3952 118.414C15.4422 119.138 15.5297 119.783 16.3768 120.02C15.8343 121.307 15.2157 122.484 14.2225 123.436C13.5801 124.051 13.0448 124.738 12.9001 125.647C12.827 126.104 12.754 126.562 12.7113 127.022C12.6548 127.624 12.9507 128.05 13.4521 128.358C14.1176 128.767 14.8613 128.909 15.6238 128.963C17.1712 129.073 18.652 128.808 20.0388 128.107C20.7781 127.735 21.3648 127.204 21.6614 126.4C21.7685 126.109 21.9074 125.927 22.3045 125.819C22.9795 125.637 23.5698 125.187 23.9698 124.571C24.0422 124.46 24.0501 124.297 24.0559 124.157C24.0827 123.513 24.1319 122.869 24.1095 122.226C24.0827 121.463 23.9915 120.703 23.9257 119.92C24.4314 119.549 24.5045 119.546 25.1989 119.913C25.1266 120.481 25.0043 121.057 24.9913 121.636C24.9718 122.529 25.0202 123.424 25.0579 124.318C25.0637 124.451 25.1309 124.61 25.2235 124.705C25.7444 125.234 26.2776 125.753 27.0632 125.879C27.1247 125.889 27.1818 125.941 27.2339 125.982C27.26 126.003 27.273 126.043 27.286 126.076C27.9769 127.892 29.5257 128.5 31.2554 128.836C32.3789 129.053 33.5081 129.076 34.6258 128.784C34.8805 128.717 35.1344 128.629 35.3717 128.517C36.3989 128.028 36.7122 127.207 36.3128 126.135C36.2434 125.949 36.2441 125.738 36.205 125.54C36.0292 124.652 35.4896 123.98 34.8537 123.381C33.8662 122.451 33.3157 121.26 32.7478 120.057L32.7485 120.056ZM37.0203 71.5219C37.008 71.3445 36.9979 71.2382 36.9928 71.132C36.8561 68.2393 36.7201 65.3459 36.5848 62.4533C36.511 60.8756 36.3215 59.2928 36.3902 57.7215C36.5306 54.5308 36.8127 51.3466 37.0276 48.1595C37.042 47.9398 37.2308 47.575 36.8409 47.5441C36.4604 47.5147 36.5754 47.9089 36.5516 48.1251C36.4452 49.0881 36.3743 50.0554 36.2795 51.0192C35.9236 54.6328 35.7746 58.245 36.0206 61.8781C36.2774 65.6619 36.4069 69.4544 36.6029 73.2433C36.6167 73.514 36.5284 73.6354 36.2745 73.69C35.2856 73.9032 34.3068 74.1804 33.3085 74.3327C28.9412 74.9984 24.5486 75.1585 20.143 74.8296C17.6884 74.6465 15.2483 74.3557 12.8617 73.7108C12.4892 73.6102 12.4089 73.4515 12.4335 73.091C12.5196 71.8257 12.568 70.5582 12.631 69.2914C12.7467 66.961 12.8697 64.6307 12.9753 62.2996C13.0527 60.5912 13.2025 58.8784 13.1511 57.1729C13.0824 54.8791 12.8574 52.589 12.6845 50.2989C12.6216 49.4644 12.5246 48.6314 12.4205 47.8012C12.4082 47.7021 12.2519 47.6202 12.1622 47.5305C12.0978 47.6288 12.0168 47.7215 11.9756 47.8285C11.9481 47.9003 11.9756 47.9937 11.9828 48.077C12.1398 49.8766 12.3199 51.6748 12.4479 53.4766C12.5586 55.0393 12.7163 56.6098 12.6657 58.1711C12.5377 62.0576 12.3033 65.9406 12.1108 69.8242C12.0841 70.3715 12.0551 70.918 12.024 71.5176H6.53906C6.53906 71.3646 6.53906 71.2469 6.53906 71.1284C6.53833 69.4645 6.51229 67.8005 6.54195 66.1373C6.59259 63.3021 6.55497 60.4576 6.78357 57.6353C7.02447 54.6594 7.48818 51.6978 7.94104 48.7434C8.24705 46.7484 8.66953 44.7685 9.10358 42.7965C9.47252 41.1204 10.4426 39.8874 12.066 39.19C13.4926 38.5768 14.9032 37.9261 16.3219 37.2927C16.4774 37.2231 16.6329 37.1556 16.8471 37.0622C16.528 38.0051 16.2445 38.8676 15.9421 39.7229C15.8256 40.0518 15.9081 40.2428 16.2423 40.357C16.6684 40.5028 17.0858 40.673 17.5054 40.8324C17.4895 40.8805 17.4887 40.8963 17.4808 40.9021C17.0959 41.1893 16.7154 41.4823 16.3233 41.7602C16.0636 41.9448 16.0043 42.1301 16.175 42.4252C18.0031 45.5822 20.0026 48.6278 22.2553 51.5025C23.0685 52.5402 23.9489 53.5276 24.8134 54.5244C24.9009 54.6256 25.0926 54.6378 25.2366 54.6917C25.2821 54.5359 25.3588 54.3807 25.3646 54.2235C25.3689 54.087 25.3038 53.9441 25.2496 53.812C25.1628 53.5987 25.2054 53.435 25.361 53.2597C25.6872 52.8921 25.9961 52.5078 26.3021 52.1229C28.7097 49.0917 30.8373 45.8723 32.8274 42.5602C33.1146 42.082 33.1016 42.0281 32.648 41.6827C32.2921 41.412 31.9376 41.1405 31.5375 40.8353C32.0107 40.6586 32.4121 40.4978 32.8209 40.3599C33.1457 40.25 33.2737 40.0726 33.137 39.7358C33.056 39.5369 33.001 39.3272 32.9359 39.1211C32.7276 38.4633 32.5207 37.8055 32.295 37.0902C32.444 37.1441 32.5315 37.1692 32.6133 37.2066C33.7309 37.7157 34.8515 38.2177 35.9634 38.7391C36.6167 39.045 37.2887 39.3308 37.8935 39.7157C39.1154 40.492 39.6391 41.738 39.9118 43.0752C40.4001 45.4651 40.8631 47.8615 41.2675 50.2673C41.7457 53.1125 42.2044 55.9685 42.2789 58.8554C42.3852 62.9589 42.3939 67.0637 42.4431 71.1686C42.4445 71.2842 42.4308 71.3998 42.4235 71.5212H37.0182L37.0203 71.5219ZM35.9142 74.3535C35.9142 74.5172 35.9222 74.6953 35.9128 74.8727C35.8057 76.9158 35.6994 78.9589 35.5865 81.002C35.4585 83.3194 35.3319 85.6369 35.1901 87.9536C34.9882 91.2498 34.7698 94.5446 34.565 97.8401C34.3813 100.802 34.2229 103.765 34.0268 106.726C33.7628 110.714 33.4604 114.7 33.2094 118.688C33.179 119.167 32.9967 119.411 32.5908 119.567C32.512 119.597 32.4367 119.635 32.3572 119.664C30.0726 120.472 27.8069 120.303 25.5614 119.51C24.7859 119.236 24.7931 119.215 24.7931 118.397C24.7902 105.1 24.7866 91.8035 24.7837 78.5065C24.7837 78.4347 24.8097 78.3463 24.7772 78.2946C24.715 78.1948 24.6188 78.1158 24.537 78.0275C24.4516 78.1108 24.3214 78.1812 24.291 78.281C24.2476 78.4239 24.2751 78.5891 24.2751 78.7442C24.2795 92.113 24.2838 105.481 24.2961 118.85C24.2961 119.126 24.1984 119.248 23.9547 119.35C22.5802 119.929 21.1471 120.206 19.6575 120.182C18.5652 120.164 17.4996 119.997 16.4882 119.557C16.1244 119.399 15.9413 119.182 15.9175 118.753C15.8097 116.83 15.6549 114.909 15.5275 112.986C15.1629 107.493 14.8041 102 14.4417 96.5073C14.208 92.9611 13.9541 89.4164 13.7421 85.8695C13.5172 82.1072 13.3312 78.3435 13.1287 74.5797C13.1236 74.4914 13.1287 74.4031 13.1287 74.3262C20.7362 75.8954 28.3089 75.8638 35.9149 74.3542L35.9142 74.3535ZM30.571 18.0489C30.3916 19.6266 30.7837 21.0219 31.4355 22.3749C31.5896 22.6945 31.6157 23.093 31.6287 23.4586C31.654 24.1516 31.6157 24.8467 31.6316 25.5397C31.6345 25.6719 31.7669 25.8004 31.8399 25.9304C31.9528 25.8291 32.1112 25.748 32.1705 25.6216C32.2971 25.353 32.347 25.0485 32.4736 24.7799C32.7594 24.1753 33.1602 24.1544 33.5269 24.7225C33.6347 24.8891 33.7273 25.0902 33.7469 25.2834C33.7838 25.6482 33.8055 26.0238 33.757 26.385C33.6514 27.1699 33.3569 27.8866 32.8151 28.4834C32.5612 28.7634 32.2761 29.0033 31.8609 29.0543C31.9318 28.5336 31.9933 28.0618 32.0642 27.5907C32.0729 27.5333 32.138 27.4866 32.1684 27.4299C32.2501 27.2769 32.381 27.1268 32.397 26.9659C32.4541 26.3886 32.6147 25.888 33.1963 25.572C33.0451 25.5268 32.8484 25.4844 32.7818 25.5584C32.5858 25.7746 32.4064 26.0209 32.287 26.2844C32.1604 26.5645 32.1148 26.8805 32.0229 27.1778C31.9984 27.2568 31.9369 27.381 31.8833 27.3861C31.6128 27.409 31.6113 27.6008 31.5694 27.7918C31.3871 28.6198 31.2757 29.4737 30.9921 30.2665C29.5293 34.3577 23.5814 36.7412 19.3696 32.2708C18.3554 31.1943 17.9698 29.845 17.7 28.441C17.6255 28.0518 17.7658 27.5598 17.276 27.3114C17.2392 27.2927 17.242 27.2008 17.2232 27.144C17.1169 26.8266 17.0467 26.4905 16.8905 26.199C16.7559 25.9462 16.5353 25.7329 16.3262 25.529C16.2734 25.4773 16.12 25.5275 16.0057 25.5304C16.2611 25.8255 16.5165 26.0273 16.6459 26.2909C16.85 26.7074 16.8326 27.1871 17.0822 27.6252C17.3014 28.0087 17.2515 28.5444 17.3339 29.1017C17.0858 28.9796 16.8832 28.9107 16.7161 28.7922C15.754 28.1099 15.1217 26.209 15.5037 25.0974C15.5847 24.8611 15.7475 24.6248 15.9348 24.4582C16.2126 24.2119 16.4043 24.2536 16.5664 24.5832C16.7234 24.9013 16.8203 25.2496 16.9317 25.5893C16.9946 25.781 17.0634 25.9965 17.3021 25.929C17.3983 25.9017 17.4916 25.6783 17.4952 25.5426C17.5112 24.8008 17.4533 24.0553 17.5104 23.3185C17.5589 22.6938 17.7202 22.0762 17.8475 21.4593C17.9155 21.1289 18.1456 20.9078 18.4545 20.7957C18.9399 20.6191 19.4253 20.4144 19.9288 20.3189C21.503 20.0216 23.0837 19.7602 24.6651 19.5031C26.6465 19.1814 28.6627 19.0076 30.5732 18.0489H30.571ZM15.4943 16.716C15.3395 15.2108 15.2013 13.7717 15.0385 12.3361C14.9958 11.9591 15.0855 11.6467 15.3322 11.3781C15.5341 11.1576 15.7438 10.9393 15.979 10.7555C16.7451 10.1573 17.6168 9.74938 18.537 9.44848C21.3301 8.53573 24.1912 8.30952 27.1023 8.66428C28.7842 8.86966 30.4213 9.25458 31.9557 9.99211C32.6856 10.3433 33.3931 10.7469 33.8778 11.414C34.0406 11.6381 34.1556 11.9569 34.1498 12.2298C34.1375 12.8489 34.0384 13.4664 33.9711 14.0848C33.8749 14.9702 33.7758 15.8557 33.6731 16.7821C30.9877 14.6729 27.8857 13.99 24.6079 13.9828C21.3315 13.9756 18.2093 14.5925 15.4943 16.716ZM32.2704 120.223C32.3253 120.332 32.3702 120.415 32.4085 120.5C32.9663 121.728 33.613 122.892 34.6077 123.844C34.9571 124.178 35.2682 124.583 35.4932 125.01C36.1175 126.196 35.7768 126.895 34.4601 127.187C33.0003 127.511 31.5592 127.386 30.1464 126.92C29.4382 126.685 28.777 126.348 28.3277 125.738C27.686 124.867 26.9294 124.132 26.0019 123.566C25.688 123.374 25.502 123.082 25.5093 122.701C25.5209 122.129 25.5295 121.557 25.5643 120.986C25.5823 120.685 25.6532 120.388 25.7032 120.071C27.9154 120.784 30.0813 120.91 32.2696 120.223H32.2704ZM16.8536 120.219C19.0607 120.905 21.2259 120.78 23.4685 120.053C23.5112 120.932 23.556 121.74 23.5872 122.549C23.606 123.028 23.4099 123.403 22.9918 123.661C22.1085 124.206 21.4364 124.965 20.7788 125.753C20.4815 126.11 20.0778 126.428 19.6575 126.628C18.1217 127.36 16.4926 127.519 14.8229 127.213C14.4858 127.152 14.1552 127.011 13.8434 126.861C13.4889 126.69 13.3283 126.388 13.3522 125.98C13.3978 125.201 13.7783 124.588 14.3151 124.067C15.2049 123.203 15.9167 122.219 16.4456 121.103C16.5787 120.823 16.7053 120.54 16.8528 120.219H16.8536ZM24.4835 51.5965C22.9231 47.529 21.3872 43.4845 20.2522 39.2927C20.4953 39.4708 20.7796 39.6367 20.8902 39.8809C21.134 40.4202 21.4032 40.5969 21.9558 40.3771C22.4579 40.1775 22.9433 39.9347 23.4367 39.7128C23.5343 39.669 23.6429 39.5893 23.734 39.6037C24.129 39.6662 24.5189 39.7574 24.9291 39.8414C25.055 40.4461 24.8314 41.1455 25.1128 41.7717C25.1678 41.7674 25.2228 41.7638 25.2778 41.7595V39.5261C25.4984 39.6295 25.6344 39.6949 25.7719 39.7574C26.253 39.9764 26.7261 40.217 27.2194 40.4051C27.6376 40.5646 28.0355 40.4044 28.1244 40.0137C28.2185 39.6008 28.5288 39.4744 28.8334 39.269C28.6988 40.334 25.7574 48.813 25.2532 49.519V43.1118C25.1982 43.1046 25.1432 43.0981 25.0883 43.091C25.0535 43.2798 24.9906 43.468 24.9899 43.6568C24.9819 45.2482 25.0145 46.8403 24.9761 48.431C24.9508 49.4823 25.1425 50.5754 24.4835 51.5958V51.5965ZM18.788 35.3904C20.0677 41.7064 22.4536 47.6439 24.7396 53.682C23.2377 52.3578 17.6739 44.4382 16.6156 42.1423C17.0706 41.8012 17.5358 41.4629 17.9872 41.1075C18.0971 41.0206 18.2462 40.8619 18.2266 40.7649C18.2049 40.655 18.0277 40.5473 17.896 40.4913C17.4128 40.2866 16.9208 40.1042 16.4181 39.9075C16.6973 39.0658 17.0236 38.2759 17.2146 37.455C17.4381 36.4963 18.1572 35.975 18.7873 35.3897L18.788 35.3904ZM30.2998 35.3365C30.7396 35.7595 31.1454 36.1459 31.544 36.5401C31.6084 36.604 31.6562 36.696 31.6837 36.7836C31.9897 37.7401 32.2856 38.6996 32.5966 39.6547C32.6596 39.8486 32.6075 39.9391 32.4259 40.0051C31.9962 40.1602 31.5694 40.324 31.1425 40.4884C30.7526 40.6392 30.7259 40.8051 31.0499 41.0593C31.5194 41.4277 31.9911 41.7933 32.4548 42.1552C31.51 44.1667 25.8269 52.2917 24.9718 52.8691C24.7663 52.5287 24.7345 52.1904 24.9378 51.8249C25.0702 51.5865 25.1432 51.3157 25.2452 51.0601C26.7738 47.2511 28.1953 43.4055 29.3166 39.455C29.436 39.0349 29.5156 38.6033 29.6465 38.1875C29.933 37.2769 30.265 36.3785 30.2983 35.3365H30.2998ZM7.711 75.6189C8.97843 75.5557 10.18 75.4997 11.3809 75.4307C11.5741 75.4199 11.6905 75.453 11.7788 75.6397C12.003 76.1151 12.2902 76.5647 12.4783 77.053C13.0368 78.5051 12.8719 80.0476 12.9818 81.5543C12.9912 81.6842 12.8234 81.8997 12.691 81.9456C12.5565 81.9923 12.2779 81.932 12.2143 81.8271C12.0023 81.4774 11.8309 81.0961 11.6949 80.7097C11.5408 80.2717 11.4576 79.8092 11.3078 79.369C11.2572 79.2196 11.0973 79.1076 10.9874 78.9776C10.9309 79.1291 10.8702 79.2785 10.821 79.4322C10.8029 79.4875 10.8094 79.5507 10.8101 79.6103C10.8159 80.1359 10.7935 80.6645 10.8354 81.1873C10.91 82.1158 11.3643 82.8835 11.9293 83.606C12.0971 83.8207 12.2128 84.1058 12.2599 84.3751C12.3069 84.643 12.0696 84.7952 11.8092 84.6939C11.6341 84.6257 11.4677 84.5158 11.3209 84.3966C10.3536 83.6074 9.70908 82.602 9.32205 81.4257C9.25911 81.2347 9.1752 81.0508 9.10069 80.8641L8.94877 80.9273C9.18243 81.9284 9.5521 82.8771 10.1764 83.7309C10.0664 83.6914 9.98977 83.6347 9.91236 83.578C9.05511 82.9496 8.64132 82.0404 8.3042 81.081C8.25356 80.9374 8.1776 80.8002 8.09658 80.6709C8.00977 80.5323 7.847 80.4189 7.81445 80.2724C7.46865 78.7104 7.59236 77.1392 7.711 75.6196V75.6189ZM40.0486 80.9223C40.0044 80.9072 39.9603 80.8921 39.9162 80.8778C39.8641 80.9941 39.8069 81.1083 39.7606 81.2261C39.6167 81.593 39.4915 81.9686 39.3324 82.3291C38.9251 83.2498 38.2675 83.9772 37.4739 84.5812C37.3423 84.6817 37.1035 84.6444 36.9147 84.6702C36.893 84.4713 36.812 84.2552 36.8641 84.0778C36.9292 83.8573 37.0854 83.6541 37.2345 83.4688C37.9159 82.6185 38.2277 81.649 38.2255 80.5704C38.2248 80.1517 38.2487 79.7323 38.2342 79.3137C38.2299 79.1959 38.1315 79.081 38.0758 78.9647C37.9774 79.0537 37.8277 79.1248 37.7893 79.2347C37.6519 79.6289 37.5586 80.0383 37.4348 80.4383C37.3148 80.8253 37.2026 81.2182 37.0399 81.5873C36.9263 81.8444 36.7122 82.0656 36.383 81.9629C36.0531 81.8602 36.0394 81.5686 36.056 81.2814C36.0958 80.6121 36.166 79.9435 36.1696 79.2742C36.1768 78.0943 36.4843 77.0099 37.0825 75.9937C37.4225 75.4171 37.4052 75.4085 38.0939 75.4788C38.214 75.491 38.3348 75.5018 38.4549 75.5025C39.3917 75.5047 40.3292 75.5032 41.2849 75.5032C41.3145 75.8041 41.3406 76.0397 41.3594 76.2752C41.4628 77.5442 41.4694 78.8103 41.2299 80.067C41.1966 80.2415 41.1547 80.4218 41.0744 80.5769C40.955 80.8081 40.777 81.0106 40.6606 81.2433C40.5325 81.499 40.4587 81.7812 40.3401 82.0419C40.0442 82.6925 39.6015 83.2232 38.9888 83.6132C39.4532 82.7521 39.9133 81.8954 40.0471 80.9216L40.0486 80.9223ZM6.4848 72.0225H11.9488C11.9488 72.4756 11.9539 72.9158 11.9466 73.356C11.9423 73.6117 11.9126 73.8659 12.2193 73.993C12.2664 74.0124 12.3025 74.1036 12.3098 74.1661C12.3799 74.77 12.3033 74.8627 11.6956 74.9345C11.624 74.9431 11.5524 74.9524 11.48 74.9611C9.929 75.1435 8.37654 75.1499 6.82408 74.979C6.66566 74.9618 6.47829 74.9855 6.48046 74.7226C6.48842 73.8379 6.48336 72.9532 6.48336 72.0232L6.4848 72.0225ZM37.0883 72.021H42.4793V74.9352C40.636 75.1887 38.826 75.1363 37.0182 74.8684C36.9386 74.8569 36.8134 74.7506 36.812 74.686C36.8069 74.4505 36.8236 74.2092 36.8735 73.9786C36.9154 73.7855 37.0659 73.6074 37.0789 73.4163C37.11 72.956 37.0891 72.4921 37.0891 72.0203L37.0883 72.021ZM20.0967 33.6274C23.0837 35.6568 26.0786 35.6934 29.0728 33.6453C29.2067 34.4453 29.1654 34.5882 28.5715 35.0392C27.4025 35.9276 26.0858 36.5437 24.7128 37.0471C24.6115 37.0845 24.4712 37.0909 24.3728 37.0522C23.0931 36.5473 21.8632 35.9527 20.7275 35.1663C20.1741 34.7836 19.871 34.352 20.0959 33.6274H20.0967ZM15.7482 18.4862C15.6064 17.9699 15.6107 17.9605 15.9659 17.6668C17.02 16.7943 18.2281 16.2061 19.5331 15.8248C22.633 14.9178 25.7574 14.8862 28.8913 15.651C30.4777 16.0381 31.9448 16.6722 33.2166 17.7185C33.5154 17.9641 33.5624 18.2155 33.4271 18.5702C30.8662 16.4043 27.8148 15.8033 24.6086 15.7932C21.4017 15.7831 18.346 16.3677 15.7475 18.4862H15.7482ZM19.6112 34.8015C20.8194 36.0216 22.3364 36.6852 23.8208 37.4285C23.6798 37.4723 23.5539 37.4701 23.4461 37.4256C22.9245 37.2094 22.4203 36.9473 21.8871 36.7685C21.304 36.5732 20.946 36.8209 20.8743 37.4234C20.8324 37.7775 20.836 38.1373 20.8259 38.4949C20.8194 38.7247 20.8244 38.9545 20.8244 39.2281C20.1719 38.8288 19.816 38.2751 19.6149 37.6446C19.4868 37.2439 19.5309 36.7908 19.4217 36.3814C19.2727 35.8249 19.3631 35.3229 19.6127 34.8022L19.6112 34.8015ZM25.2959 37.4622C25.2959 37.4191 25.2944 37.376 25.2937 37.3337C26.8179 36.678 28.3342 36.0116 29.5351 34.8109C29.7529 35.3171 29.8606 35.8019 29.7138 36.3311C29.5901 36.7793 29.5395 37.2468 29.4237 37.6978C29.2566 38.3477 28.8348 38.8145 28.2272 39.2554C28.2272 38.5911 28.2481 38.018 28.2214 37.4471C28.1946 36.8776 27.8163 36.6134 27.2563 36.7426C27.0827 36.7829 26.9171 36.8633 26.7528 36.9365C26.3687 37.1082 25.9904 37.2942 25.6026 37.4572C25.5151 37.4938 25.3986 37.4629 25.2959 37.4629V37.4622ZM13.2314 127.017C15.5572 128.441 19.2503 127.944 21.3048 125.917C21.0791 126.637 20.6855 127.182 20.0482 127.54C18.6035 128.351 17.0438 128.647 15.4111 128.446C14.8164 128.372 14.2305 128.138 13.6734 127.901C13.3406 127.759 13.1323 127.441 13.2314 127.017ZM35.9243 126.996C35.9829 127.391 35.8346 127.674 35.5359 127.851C35.2494 128.02 34.9456 128.191 34.6265 128.271C32.6559 128.763 30.7801 128.486 29.0106 127.506C28.3805 127.157 28.0564 126.569 27.7779 125.874C29.8997 127.944 33.8713 128.482 35.9243 126.996ZM26.7232 125.314C26.2956 124.849 25.4594 124.734 25.5216 123.789C26.083 124.209 26.5995 124.596 27.1059 124.975C26.9605 125.103 26.8686 125.185 26.7232 125.314ZM22.4376 125.285C22.2922 125.183 22.1758 125.101 22.0072 124.983C22.5187 124.591 23.0157 124.211 23.5633 123.793C23.6494 124.72 22.8601 124.858 22.4376 125.284V125.285ZM12.6737 75.2045C12.6903 75.5736 12.7048 75.9011 12.72 76.2286C12.6917 76.2314 12.6628 76.2343 12.6346 76.2372C12.4877 75.9571 12.3409 75.677 12.1904 75.3898C12.3539 75.3273 12.4856 75.277 12.6744 75.2052L12.6737 75.2045ZM36.3931 75.1794C36.5783 75.262 36.7143 75.323 36.8713 75.3927C36.7064 75.695 36.553 75.9765 36.3989 76.2587C36.375 76.2501 36.3504 76.2408 36.3266 76.2322C36.3475 75.8954 36.3693 75.5585 36.3931 75.1794Z" fill="#6F2F6A"/>
<path d="M37.0202 71.5219H42.4256C42.4328 71.3998 42.4466 71.2842 42.4451 71.1693C42.3959 67.0644 42.3873 62.9596 42.2809 58.8562C42.2064 55.9685 41.7478 53.1125 41.2696 50.268C40.8652 47.863 40.4022 45.4658 39.9139 43.0759C39.6404 41.7387 39.1167 40.4927 37.8956 39.7164C37.2901 39.3315 36.6187 39.0464 35.9655 38.7398C34.8536 38.2184 33.733 37.7164 32.6153 37.2073C32.5336 37.1699 32.4453 37.1448 32.297 37.0909C32.5227 37.8062 32.7296 38.464 32.938 39.1218C33.0031 39.3272 33.0581 39.5369 33.1391 39.7365C33.2758 40.0726 33.147 40.2507 32.8229 40.3606C32.4135 40.4985 32.0127 40.6593 31.5396 40.836C31.9389 41.1412 32.2941 41.4127 32.65 41.6834C33.1036 42.0288 33.1174 42.0827 32.8295 42.561C30.8393 45.873 28.7117 49.0924 26.3042 52.1236C25.9982 52.5086 25.6893 52.8928 25.363 53.2605C25.2075 53.4357 25.1648 53.5994 25.2516 53.8127C25.3052 53.9448 25.371 54.0885 25.3667 54.2242C25.3616 54.3815 25.2849 54.5366 25.2386 54.6924C25.0954 54.6386 24.9037 54.6263 24.8154 54.5251C23.9509 53.5276 23.0705 52.5409 22.2574 51.5032C20.004 48.6285 18.0051 45.5829 16.1771 42.426C16.0063 42.1308 16.0657 41.9455 16.3254 41.761C16.7167 41.483 17.098 41.19 17.4828 40.9028C17.4908 40.897 17.4908 40.8812 17.5074 40.8331C17.0886 40.6744 16.6704 40.5035 16.2443 40.3577C15.9101 40.2435 15.8277 40.0525 15.9441 39.7236C16.2465 38.8683 16.5294 38.0058 16.8491 37.0629C16.635 37.157 16.4787 37.2245 16.3239 37.2934C14.906 37.9268 13.4954 38.5775 12.068 39.1908C10.4447 39.8888 9.47459 41.1211 9.10564 42.7972C8.67159 44.7699 8.24911 46.7491 7.94311 48.7441C7.48952 51.6985 7.02653 54.6601 6.78564 57.6361C6.55704 60.4583 6.59465 63.3029 6.54401 66.1381C6.51435 67.8013 6.5404 69.4652 6.54112 71.1291C6.54112 71.2476 6.54112 71.3654 6.54112 71.5183H12.0261C12.0572 70.9187 12.0861 70.3722 12.1129 69.825C12.3053 65.9406 12.5404 62.0576 12.6678 58.1718C12.7191 56.6106 12.5607 55.04 12.45 53.4773C12.3227 51.6755 12.1418 49.8773 11.9848 48.0777C11.9776 47.9944 11.9501 47.901 11.9776 47.8292C12.0189 47.7215 12.0999 47.6296 12.1643 47.5312C12.254 47.6209 12.4102 47.7028 12.4225 47.8019C12.5267 48.6328 12.6244 49.4651 12.6866 50.2996C12.8595 52.5897 13.0837 54.8798 13.1532 57.1736C13.2045 58.8791 13.0548 60.5919 12.9774 62.3003C12.871 64.6314 12.7488 66.961 12.633 69.2921C12.5701 70.5589 12.5216 71.8264 12.4355 73.0918C12.4109 73.4523 12.4912 73.6102 12.8638 73.7115C15.2496 74.3564 17.6905 74.6472 20.145 74.8304C24.5506 75.1593 28.9425 74.9991 33.3105 74.3334C34.3088 74.1812 35.2869 73.904 36.2765 73.6907C36.5305 73.6361 36.6187 73.5147 36.605 73.244C36.4089 69.4558 36.2794 65.6634 36.0226 61.8788C35.7759 58.2457 35.9257 54.6328 36.2816 51.0199C36.3764 50.0554 36.4473 49.0888 36.5536 48.1258C36.5775 47.9096 36.4625 47.5147 36.843 47.5448C37.2329 47.575 37.0448 47.9405 37.0296 48.1603C36.8155 51.3481 36.5326 54.5323 36.3923 57.7222C36.3236 59.2935 36.5131 60.8763 36.5869 62.454C36.7222 65.3467 36.8589 68.24 36.9949 71.1327C37 71.239 37.0094 71.3452 37.0224 71.5226L37.0202 71.5219ZM16.4693 49.552C16.4693 49.552 16.4693 49.5477 16.4693 49.5455C15.8674 49.5455 15.2663 49.5427 14.6644 49.547C14.3475 49.5491 14.2043 49.4077 14.2123 49.0881C14.2224 48.706 14.2065 48.324 14.2094 47.9419C14.2123 47.575 14.3323 47.4436 14.7078 47.4414C15.8747 47.4349 17.0423 47.44 18.2091 47.4414C18.5253 47.4414 18.662 47.6095 18.6584 47.9161C18.6541 48.2981 18.6642 48.6802 18.662 49.063C18.6598 49.4428 18.5557 49.547 18.1657 49.5506C17.6 49.5556 17.0343 49.552 16.4693 49.552ZM23.5545 56.9804C23.5465 56.5323 23.9111 56.1502 24.364 56.1316C24.8118 56.1136 25.1981 56.4827 25.2082 56.9387C25.2184 57.3897 24.8538 57.7711 24.4002 57.784C23.9495 57.7976 23.5625 57.4292 23.5545 56.9797V56.9804ZM25.2176 63.4817C25.2104 63.9312 24.8357 64.3018 24.39 64.3003C23.943 64.2982 23.569 63.9226 23.569 63.4759C23.569 63.0055 23.9516 62.6307 24.4161 62.6458C24.8805 62.6608 25.2249 63.0199 25.2176 63.4824V63.4817Z" fill="#6F2F6A"/>
<path d="M30.5709 18.0489C28.6604 19.0076 26.6442 19.1814 24.6628 19.5031C23.0814 19.7602 21.5007 20.0216 19.9265 20.3189C19.4223 20.4144 18.9376 20.6191 18.4522 20.7957C18.1433 20.9078 17.914 21.1297 17.8453 21.4593C17.7172 22.0769 17.5559 22.6938 17.5082 23.3185C17.451 24.0561 17.5096 24.8015 17.493 25.5426C17.4901 25.6783 17.3967 25.9017 17.2998 25.929C17.0611 25.9965 16.9924 25.781 16.9294 25.5893C16.818 25.2503 16.7211 24.902 16.5641 24.5832C16.4013 24.2528 16.2103 24.2119 15.9325 24.4582C15.7445 24.6248 15.5824 24.8611 15.5014 25.0974C15.1194 26.209 15.7517 28.1099 16.7138 28.7922C16.881 28.9107 17.0835 28.9796 17.3316 29.1017C17.2492 28.5437 17.2991 28.0087 17.0799 27.6252C16.8296 27.1871 16.8469 26.7074 16.6437 26.2909C16.5149 26.0273 16.2588 25.8255 16.0034 25.5304C16.1177 25.5268 16.2711 25.4773 16.3239 25.529C16.533 25.7329 16.7529 25.9462 16.8882 26.199C17.0437 26.4905 17.1139 26.8266 17.221 27.144C17.2398 27.2008 17.2369 27.2927 17.2738 27.3114C17.7635 27.5598 17.6232 28.051 17.6977 28.441C17.9675 29.8449 18.3531 31.1943 19.3673 32.2708C23.5791 36.7412 29.527 34.3577 30.9898 30.2665C31.2734 29.4737 31.3848 28.6198 31.5671 27.7918C31.609 27.6008 31.6105 27.409 31.881 27.3861C31.9346 27.3817 31.9961 27.2575 32.0207 27.1778C32.1133 26.8812 32.1581 26.5652 32.2847 26.2844C32.4041 26.0202 32.5835 25.7738 32.7795 25.5584C32.8461 25.4844 33.0429 25.5268 33.1941 25.572C32.6124 25.888 32.4518 26.3886 32.3947 26.9659C32.3788 27.1268 32.2478 27.2769 32.1661 27.4299C32.1357 27.4859 32.0706 27.5333 32.0619 27.5907C31.991 28.0618 31.9295 28.5336 31.8586 29.0543C32.2731 29.0033 32.5589 28.7634 32.8128 28.4834C33.3547 27.8866 33.6491 27.1692 33.7547 26.385C33.8032 26.0238 33.7815 25.6482 33.7446 25.2834C33.725 25.0902 33.6324 24.8891 33.5247 24.7225C33.1579 24.1544 32.7571 24.1753 32.4714 24.7799C32.3448 25.0485 32.2948 25.3523 32.1682 25.6216C32.1089 25.748 31.9512 25.8291 31.8376 25.9304C31.7646 25.8004 31.6322 25.6711 31.6293 25.5397C31.6134 24.846 31.651 24.1516 31.6264 23.4586C31.6134 23.0938 31.5873 22.6952 31.4333 22.3749C30.7815 21.0219 30.3894 19.6266 30.5688 18.0489H30.5709Z" fill="white"/>
<path d="M15.4942 16.716C18.2091 14.5925 21.3314 13.9756 24.6078 13.9828C27.8856 13.99 30.9869 14.6729 33.673 16.7821C33.7757 15.8557 33.8748 14.9709 33.971 14.0848C34.0383 13.4672 34.1374 12.8488 34.1497 12.2298C34.1555 11.9569 34.0405 11.6381 33.8777 11.414C33.393 10.7469 32.6855 10.3433 31.9556 9.99211C30.4212 9.25458 28.7841 8.86966 27.1021 8.66427C24.1911 8.30952 21.3307 8.53573 18.5369 9.44848C17.6167 9.74938 16.745 10.1573 15.9789 10.7555C15.7437 10.9386 15.5339 11.1576 15.3321 11.3781C15.0854 11.6467 14.9957 11.9591 15.0384 12.3361C15.2012 13.7717 15.3401 15.2108 15.4942 16.716Z" fill="white"/>
<path d="M24.4841 51.5965C25.1431 50.5761 24.9514 49.4831 24.9767 48.4317C25.0151 46.8411 24.9825 45.2489 24.9905 43.6576C24.9912 43.4687 25.0549 43.2798 25.0889 43.0917C25.1438 43.0988 25.1988 43.1053 25.2538 43.1125V49.5197C25.758 48.8138 28.6994 40.3347 28.834 39.2698C28.5294 39.4751 28.2191 39.6022 28.125 40.0145C28.0361 40.4051 27.6382 40.5653 27.2201 40.4058C26.7267 40.2177 26.2536 39.9764 25.7725 39.7581C25.635 39.6956 25.499 39.6303 25.2784 39.5268V41.7602C25.2234 41.7646 25.1684 41.7681 25.1135 41.7725C24.832 41.1462 25.0556 40.4461 24.9297 39.8421C24.5195 39.7574 24.1289 39.6669 23.7346 39.6044C23.6435 39.59 23.535 39.6698 23.4373 39.7136C22.9439 39.9355 22.4585 40.1782 21.9565 40.3778C21.4038 40.5976 21.1346 40.4209 20.8909 39.8816C20.7802 39.6382 20.4959 39.4715 20.2528 39.2935C21.3886 43.4852 22.9237 47.5297 24.4841 51.5973V51.5965ZM24.2302 41.5857C24.2815 41.5872 24.3336 41.5893 24.385 41.5908C24.4805 41.7452 24.6555 41.9046 24.6468 42.0532C24.6396 42.1753 24.4262 42.3599 24.2822 42.3821C24.0522 42.4181 23.88 42.2306 23.9278 42.0001C23.9589 41.8479 24.1245 41.7222 24.2302 41.585V41.5857ZM23.7636 45.5398C24.0124 45.3588 24.1745 45.1549 24.2895 45.1786C24.4421 45.2094 24.5586 45.4177 24.6903 45.5498C24.5593 45.6669 24.4371 45.8637 24.296 45.8773C24.1643 45.8902 24.0131 45.7086 23.7628 45.5398H23.7636ZM23.8127 48.3247C24.0385 48.1876 24.1925 48.0202 24.3018 48.0454C24.445 48.0784 24.6671 48.2859 24.6497 48.3793C24.6208 48.533 24.4255 48.6558 24.3003 48.7915C24.1658 48.6622 24.0305 48.5337 23.8127 48.3247Z" fill="white"/>
<path d="M18.7886 35.3904C18.1578 35.9757 17.4387 36.497 17.2159 37.4557C17.0249 38.2766 16.6986 39.0665 16.4194 39.9082C16.9222 40.1042 17.4141 40.2874 17.8974 40.492C18.0297 40.548 18.2063 40.655 18.228 40.7656C18.2475 40.8619 18.0985 41.0213 17.9885 41.1082C17.5371 41.4637 17.0719 41.8019 16.6169 42.143C17.6753 44.4389 23.2391 52.3578 24.7409 53.6827C22.4549 47.6446 20.0683 41.7071 18.7893 35.3911L18.7886 35.3904Z" fill="white"/>
<path d="M30.3004 35.3365C30.2671 36.3785 29.9358 37.2769 29.6486 38.1875C29.5176 38.6033 29.4373 39.0349 29.3187 39.455C28.1981 43.4048 26.7766 47.2511 25.2473 51.0601C25.1446 51.315 25.0722 51.5865 24.9398 51.8249C24.7358 52.1904 24.7684 52.5287 24.9738 52.8691C25.8289 52.2924 31.5121 44.1674 32.4569 42.1552C31.9932 41.794 31.5215 41.4277 31.052 41.0593C30.7279 40.8051 30.754 40.6385 31.1446 40.4884C31.5707 40.324 31.9982 40.161 32.4279 40.0051C32.6095 39.9398 32.6616 39.8486 32.5987 39.6547C32.2876 38.6996 31.9917 37.7401 31.6857 36.7836C31.6575 36.696 31.6105 36.604 31.5461 36.5401C31.1475 36.1466 30.7409 35.7602 30.3018 35.3365H30.3004Z" fill="white"/>
<path d="M20.0973 33.6274C19.8723 34.3527 20.1754 34.7836 20.7288 35.1663C21.8653 35.9527 23.0951 36.5473 24.3741 37.0522C24.4725 37.0909 24.6129 37.0845 24.7141 37.0471C26.0872 36.543 27.4038 35.9268 28.5729 35.0392C29.1668 34.5882 29.208 34.4446 29.0742 33.6453C26.0799 35.6934 23.085 35.6568 20.098 33.6274H20.0973Z" fill="white"/>
<path d="M15.7488 18.4869C18.3473 16.3684 21.403 15.7839 24.61 15.7939C27.8162 15.804 30.8668 16.4051 33.4284 18.5709C33.5637 18.2162 33.5167 17.9648 33.2179 17.7192C31.9462 16.6729 30.4791 16.0388 28.8926 15.6517C25.7587 14.8876 22.635 14.9192 19.5344 15.8255C18.2294 16.2076 17.0206 16.795 15.9673 17.6675C15.6128 17.9612 15.6085 17.9706 15.7495 18.4869H15.7488Z" fill="white"/>
<path d="M19.6119 34.8015C19.363 35.3222 19.2726 35.8249 19.4209 36.3807C19.5308 36.79 19.486 37.2432 19.614 37.6439C19.8159 38.2744 20.1711 38.8281 20.8236 39.2274C20.8236 38.9538 20.8185 38.724 20.825 38.4942C20.8352 38.1365 20.8315 37.7767 20.8735 37.4227C20.9451 36.8202 21.3032 36.5724 21.8863 36.7678C22.4194 36.9466 22.9244 37.2087 23.4453 37.4249C23.553 37.4694 23.6796 37.4715 23.82 37.4277C22.3355 36.6845 20.8185 36.0209 19.6104 34.8008L19.6119 34.8015Z" fill="white"/>
<path d="M25.2965 37.4622C25.3992 37.4622 25.5164 37.4938 25.6032 37.4565C25.991 37.2934 26.3693 37.1074 26.7535 36.9358C26.9177 36.8626 27.0833 36.7821 27.257 36.7419C27.8169 36.6127 28.1945 36.8769 28.222 37.4464C28.2488 38.0173 28.2278 38.5904 28.2278 39.2547C28.8347 38.813 29.2572 38.347 29.4243 37.697C29.5401 37.246 29.59 36.7785 29.7144 36.3304C29.8613 35.8004 29.7535 35.3164 29.5357 34.8101C28.3348 36.0101 26.8178 36.6773 25.2943 37.3329C25.2943 37.376 25.2958 37.4191 25.2965 37.4615V37.4622Z" fill="white"/>
<path d="M16.4693 49.552C17.035 49.552 17.6007 49.5556 18.1657 49.5506C18.5564 49.547 18.6598 49.4429 18.662 49.063C18.6642 48.6809 18.654 48.2989 18.6584 47.9161C18.662 47.6087 18.5253 47.4414 18.2091 47.4414C17.0415 47.4393 15.8747 47.4342 14.7078 47.4414C14.3323 47.4436 14.2123 47.575 14.2094 47.942C14.2065 48.324 14.2224 48.7068 14.2123 49.0881C14.2036 49.4077 14.3475 49.5491 14.6644 49.547C15.2663 49.5427 15.8674 49.5455 16.4693 49.5455C16.4693 49.5477 16.4693 49.5499 16.4693 49.552ZM14.6825 47.9053H18.1788V49.0594H14.6825V47.9053Z" fill="#6F2F6A"/>
<path d="M24.2302 41.585C24.1246 41.7222 23.9596 41.8479 23.9278 42.0001C23.8808 42.2299 24.0522 42.4181 24.2823 42.3822C24.4255 42.3599 24.6396 42.1746 24.6469 42.0532C24.6555 41.9046 24.4805 41.7452 24.385 41.5908C24.3336 41.5893 24.2815 41.5872 24.2302 41.5857V41.585Z" fill="#6F2F6A"/>
<path d="M23.7636 45.5398C24.0139 45.7085 24.1643 45.8902 24.2967 45.8773C24.4378 45.8637 24.56 45.6669 24.691 45.5498C24.5593 45.4177 24.4428 45.2094 24.2902 45.1786C24.1752 45.1549 24.0131 45.3588 23.7643 45.5398H23.7636Z" fill="#6F2F6A"/>
<path d="M23.8135 48.3247C24.0319 48.5337 24.1665 48.6622 24.3011 48.7915C24.4262 48.6558 24.6208 48.533 24.6505 48.3793C24.6686 48.2859 24.4465 48.0791 24.3025 48.0454C24.1933 48.0202 24.0385 48.1876 23.8135 48.3247Z" fill="#6F2F6A"/>
<path d="M14.6825 47.9053V49.0594H18.1788V47.9053H14.6825Z" fill="white"/>
</g>
</g>
<defs>
<clipPath id="clip0_2563_20609">
<rect width="50" height="50" rx="25" fill="white"/>
</clipPath>
<clipPath id="clip1_2563_20609">
<rect width="37" height="121" fill="white" transform="matrix(-1 0 0 1 43 8)"/>
</clipPath>
</defs>
</svg>
